<svg id="Layer_1" enable-background="new 0 0 512 512" height="512" viewBox="0 0 512 512" width="512" xmlns="http://www.w3.org/2000/svg"><g><ellipse cx="256" cy="452" fill="#fff" rx="150" ry="50"/><ellipse cx="256" cy="452" fill="#beece1" rx="50" ry="20"/><path d="m426 180c0 150-170 270-170 270s-170-120-170-270c0-93.888 76.112-170 170-170s170 76.112 170 170z" fill="#d0f2d2"/><circle cx="256" cy="180" fill="#fff" r="130"/><g><circle cx="256" cy="180" fill="#ccf5fc" r="90"/><g fill="#5cd0b3"><path d="m383.367 414.378c-14.181-6.768-32.491-12.239-53.621-16.092 6.166-6.386 12.472-13.215 18.792-20.465 25.244-28.957 45.387-58.541 59.869-87.933 18.31-37.156 27.593-74.128 27.593-109.888 0-99.252-80.748-180-180-180s-180 80.748-180 180c0 35.76 9.283 72.732 27.593 109.889 14.482 29.392 34.625 58.976 59.869 87.933 6.32 7.25 12.626 14.079 18.792 20.465-21.13 3.853-39.44 9.324-53.621 16.092-26.972 12.871-32.633 27.563-32.633 37.621 0 12.736 8.809 30.854 50.771 44.842 29.325 9.775 68.116 15.158 109.229 15.158s79.904-5.383 109.229-15.158c41.962-13.988 50.771-32.106 50.771-44.842 0-18.223-17.746-30.517-32.633-37.622zm-261.944-133.552c-16.869-34.306-25.423-68.229-25.423-100.826 0-88.224 71.775-160 160-160s160 71.776 160 160c0 32.597-8.554 66.52-25.423 100.826-13.669 27.797-32.785 55.895-56.818 83.513-32.229 37.035-64.85 63.337-77.759 73.199-12.913-9.865-45.533-36.167-77.759-73.199-24.033-27.618-43.149-55.716-56.818-83.513zm237.48 197.043c-27.338 9.112-63.883 14.131-102.903 14.131s-75.565-5.019-102.903-14.131c-27.381-9.127-37.097-19.64-37.097-25.869 0-10.389 26.06-28.281 83.834-36.274 27.635 26.265 49.142 41.557 50.399 42.443 1.729 1.221 3.747 1.831 5.767 1.831s4.038-.61 5.767-1.831c1.257-.887 22.764-16.179 50.399-42.443 57.774 7.993 83.834 25.885 83.834 36.274 0 6.229-9.716 16.742-37.097 25.869z"/><path d="m349.712 214.9c.548-.973.934-2.046 1.131-3.186 3.342-9.97 5.157-20.634 5.157-31.714s-1.815-21.744-5.157-31.714c-.197-1.14-.583-2.214-1.131-3.186-14.191-37.981-50.842-65.1-93.712-65.1s-79.521 27.119-93.712 65.1c-.548.973-.934 2.046-1.131 3.186-3.342 9.97-5.157 20.634-5.157 31.714s1.815 21.744 5.157 31.714c.197 1.14.583 2.214 1.131 3.186 14.191 37.981 50.842 65.1 93.712 65.1s79.521-27.119 93.712-65.1zm-112.858 24.678c-2.598-5.846-4.761-12.44-6.456-19.578h51.205c-1.695 7.138-3.858 13.732-6.456 19.578-5.599 12.597-12.936 20.422-19.147 20.422s-13.548-7.825-19.146-20.422zm-60.854-59.578c0-6.904.88-13.605 2.531-20h28.387c-.602 6.429-.919 13.111-.919 20s.317 13.571.919 20h-28.387c-1.651-6.395-2.531-13.096-2.531-20zm50 0c0-6.842.357-13.541 1.04-20h57.921c.682 6.459 1.04 13.158 1.04 20s-.357 13.541-1.04 20h-57.921c-.683-6.459-1.04-13.158-1.04-20zm30-80c6.211 0 13.548 7.825 19.146 20.422 2.598 5.846 4.761 12.44 6.456 19.578h-51.205c1.695-7.138 3.858-13.732 6.456-19.578 5.599-12.597 12.936-20.422 19.147-20.422zm80 80c0 6.904-.88 13.605-2.531 20h-28.387c.602-6.429.919-13.111.919-20s-.317-13.571-.919-20h28.387c1.651 6.395 2.531 13.096 2.531 20zm-44.442 71.635c4.489-8.908 8.087-19.604 10.57-31.635h23.11c-7.868 13.564-19.595 24.615-33.68 31.635zm33.679-111.635h-23.11c-2.482-12.031-6.081-22.727-10.57-31.635 14.086 7.02 25.813 18.071 33.68 31.635zm-104.795-31.635c-4.489 8.908-8.087 19.604-10.57 31.635h-23.11c7.868-13.564 19.595-24.615 33.68-31.635zm-33.679 111.635h23.11c2.482 12.031 6.081 22.727 10.57 31.635-14.086-7.02-25.813-18.071-33.68-31.635z"/></g></g></g></svg>